# xmcd CD database file
#
# Track frame offsets:
#	150
#	27060
#	61713
#	89983
#	109340
#	141348
#	164261
#	186442
#	189428
#	216397
#	239905
#	259810
#	273764
#
# Disc length: 3916 seconds
#
# Revision: 1
# Processed by: cddbd v1.5.2PL0 Copyright (c) Steve Scherf et al.
# Submitted via: CDex 1.70beta2
#
DISCID=c90f4a0d
DTITLE=One Soul Fellowship - Interactive
DYEAR=2008
DGENRE=Jazz
TTITLE0=Another Season
TTITLE1=Haeng's Groove
TTITLE2=All the Things You are for Peace
TTITLE3=Soul Express on 7th Ave
TTITLE4=Falta De Paz (Absence of Peace)
TTITLE5=Soul Minor
TTITLE6=19th Century Funk
TTITLE7=19th Century Funk Reprise
TTITLE8=Father's Hands
TTITLE9=Spring in My Home Town
TTITLE10=Sa Mo Gok (A Song for My Mother)
TTITLE11=Like a Movie
TTITLE12=Bonus Track - Sa Mo Gok (A Song for My Mother)
EXTD=YEAR: 2008
EXTT0=
EXTT1=
EXTT2=
EXTT3=
EXTT4=
EXTT5=
EXTT6=
EXTT7=
EXTT8=
EXTT9=
EXTT10=
EXTT11=
EXTT12=
PLAYORDER=
